<svg width="10" height="19" viewBox="0 0 10 19" fill="none" xmlns="http://www.w3.org/2000/svg">
<path d="M0.254181 1.51848C0.172987 1.43256 0.109512 1.33148 0.0673798 1.22103C0.0252471 1.11058 0.00528171 0.992909 0.00862451 0.874741C0.0119673 0.756573 0.0385525 0.64022 0.0868619 0.532326C0.135171 0.424432 0.204259 0.32711 0.29018 0.245916C0.376101 0.164723 0.477174 0.101247 0.587626 0.0591148C0.698079 0.0169822 0.815747 -0.00298282 0.933916 0.00035999C1.05208 0.0037028 1.16844 0.0302878 1.27633 0.0785971C1.38422 0.126906 1.48155 0.195994 1.56274 0.281915L9.2125 8.38166C9.37048 8.54876 9.4585 8.76999 9.4585 8.99994C9.4585 9.2299 9.37048 9.45113 9.2125 9.61822L1.56274 17.7189C1.48208 17.8067 1.38478 17.8776 1.27649 17.9275C1.1682 17.9773 1.05108 18.0052 0.931927 18.0094C0.812776 18.0137 0.693971 17.9942 0.582413 17.9521C0.470855 17.91 0.368769 17.8462 0.282083 17.7644C0.195397 17.6825 0.12584 17.5842 0.0774517 17.4753C0.0290636 17.3663 0.00280931 17.2488 0.000213369 17.1296C-0.00238257 17.0104 0.0187314 16.8919 0.0623297 16.7809C0.105928 16.67 0.171141 16.5688 0.254181 16.4832L7.32076 8.99994L0.254181 1.51848V1.51848Z" fill="#5B69C6"/>
</svg>
